<svg width="26" height="33" viewBox="0 0 26 33" fill="none" xmlns="http://www.w3.org/2000/svg">
<path d="M1.71275 19.1194C1.71275 13.1348 1.71561 7.14957 1.70703 1.16502C1.70632 0.644718 2.14949 0.0304619 2.85069 0.0340207C7.59903 0.0539503 12.3481 0.042562 17.0971 0.054662C17.2723 0.0553738 17.4903 -0.106909 17.6418 0.124415C17.5911 0.750772 17.6218 1.37784 17.6189 2.0042C17.6139 3.39143 17.6154 4.77796 17.6182 6.1652C17.6189 6.65987 17.6475 6.68835 18.1443 6.68906C20.1321 6.69262 22.12 6.68834 24.1078 6.6919C24.145 6.6919 24.1771 6.67838 24.2107 6.66628C24.3515 6.76095 24.2865 6.90472 24.2865 7.0243C24.2901 11.0558 24.2901 15.0879 24.2901 19.1194C24.0935 19.2781 23.8583 19.2276 23.6375 19.2276C18.9027 19.2304 14.1672 19.2297 9.43247 19.2297C7.06509 19.2297 4.69771 19.2311 2.33033 19.2276C2.12018 19.2276 1.89788 19.2717 1.71275 19.1194Z" fill="#D7D7D4"/>
<path d="M1.71255 19.1194C1.81905 19.1244 1.92555 19.1343 2.03206 19.1343C9.34434 19.135 16.6573 19.135 23.9696 19.1343C24.0761 19.1343 24.1826 19.1244 24.2891 19.1187C24.5143 19.1308 24.7409 19.1308 24.9646 19.1571C25.5765 19.229 25.9939 19.6674 25.9953 20.2767C26.0025 23.2747 26.0032 26.2727 25.9953 29.2713C25.9939 29.9034 25.53 30.3632 24.8967 30.408C24.6951 30.4223 24.4929 30.4216 24.2913 30.4272C24.094 30.5831 23.8603 30.539 23.638 30.5397C20.0326 30.5426 16.4272 30.5418 12.8218 30.5418C9.33577 30.5418 5.84903 30.5426 2.363 30.5397C2.14071 30.5397 1.90697 30.5838 1.70969 30.4272C1.51955 30.4208 1.32942 30.4151 1.13929 30.4066C0.488114 30.3781 0.00706172 29.9176 0.00563215 29.2713C-0.00223053 26.2727 -0.00151574 23.274 0.00563215 20.2753C0.00706172 19.6205 0.477393 19.1792 1.14286 19.155C1.33371 19.1479 1.52313 19.1315 1.71255 19.1194Z" fill="#FBA91C"/>
<path d="M1.71015 30.4273C1.81665 30.4223 1.92316 30.413 2.03038 30.413C9.34409 30.4123 16.6578 30.4123 23.9722 30.413C24.0787 30.413 24.1852 30.4223 24.2925 30.4273C24.2918 30.771 24.2925 31.1148 24.2896 31.4579C24.2832 32.1682 23.8171 32.628 23.0981 32.628C16.3512 32.6288 9.60356 32.6288 2.85667 32.6273C2.20693 32.6273 1.73302 32.1725 1.71587 31.5284C1.70443 31.1618 1.71087 30.7945 1.71015 30.4273Z" fill="#D7D7D5"/>
<path d="M24.2107 6.66557C24.1979 6.81291 24.0842 6.77874 23.9963 6.77874C21.9284 6.78017 19.8605 6.77732 17.7927 6.78373C17.5732 6.78444 17.5096 6.71113 17.5103 6.49688C17.5167 4.44984 17.5139 2.40279 17.5167 0.355745C17.5167 0.26535 17.4581 0.125132 17.6411 0.12442C18.5939 1.08033 19.5439 2.03908 20.5003 2.99071C21.7347 4.21851 22.9742 5.44062 24.2107 6.66557Z" fill="#45556C"/>
<path d="M12.9999 15.2068C15.5474 15.2068 18.0942 15.2068 20.6417 15.2075C20.7604 15.2075 20.884 15.1947 20.997 15.2218C21.2814 15.2894 21.4566 15.4666 21.458 15.7727C21.4594 16.0801 21.2807 16.2545 20.9984 16.3243C20.8854 16.352 20.7618 16.3371 20.6431 16.3371C15.5488 16.3378 10.4545 16.3378 5.35952 16.3371C5.24087 16.3371 5.11649 16.352 5.00427 16.3243C4.72121 16.256 4.54323 16.0809 4.54395 15.7741C4.54466 15.468 4.71907 15.2908 5.00356 15.2225C5.11649 15.1954 5.24015 15.2075 5.35881 15.2075C7.9056 15.2068 10.4531 15.2068 12.9999 15.2068Z" fill="#45556C"/>
<path d="M12.9993 11.8458C15.5332 11.8458 18.0679 11.8458 20.6018 11.8458C20.7205 11.8458 20.8413 11.8366 20.9585 11.8515C21.2566 11.8892 21.4367 12.0608 21.456 12.3626C21.4753 12.6636 21.3195 12.8622 21.03 12.9348C20.8942 12.969 20.7469 12.9647 20.6047 12.9647C15.5361 12.9661 10.4683 12.9661 5.39969 12.9647C5.25745 12.9647 5.1102 12.969 4.97439 12.9348C4.68561 12.8629 4.52622 12.67 4.54552 12.3654C4.56553 12.0629 4.74351 11.8921 5.04015 11.8515C5.15738 11.8359 5.27746 11.8451 5.39683 11.8451C7.93075 11.8458 10.4654 11.8458 12.9993 11.8458Z" fill="#46556C"/>
<path d="M17.9756 28.4564C17.2329 28.44 16.5639 28.3133 16.0371 27.7958C15.6647 27.4307 15.7219 26.8976 16.1507 26.6036C16.3931 26.4378 16.6011 26.5346 16.7991 26.694C17.1786 27.0001 17.5825 27.2293 18.1 27.1666C18.4238 27.1275 18.7276 27.0542 18.8162 26.6933C18.9041 26.336 18.6968 26.1061 18.4038 25.9488C18.1 25.7865 17.789 25.6378 17.4781 25.489C17.1336 25.3239 16.7998 25.1474 16.5239 24.8755C15.5503 23.916 15.8034 22.4654 17.0628 21.9259C17.8977 21.5686 18.7576 21.6106 19.6032 21.9131C19.9198 22.0263 20.1121 22.2448 20.0814 22.6156C20.0413 23.1017 19.6832 23.3302 19.2408 23.1231C18.8905 22.9587 18.5346 22.8491 18.1414 22.8775C17.9706 22.8896 17.8126 22.9338 17.6668 23.0149C17.323 23.2071 17.2894 23.5473 17.5953 23.7943C17.7998 23.9587 18.0399 24.0655 18.2787 24.1737C18.7326 24.3786 19.1879 24.5744 19.5839 24.8954C20.3537 25.5189 20.3694 26.3296 20.1271 27.1602C19.887 27.9845 19.2122 28.3247 18.403 28.4322C18.2501 28.4535 18.0935 28.45 17.9756 28.4564Z" fill="white"/>
<path d="M10.9384 25.0171C10.9384 24.1046 10.9434 23.1914 10.9356 22.2789C10.9334 21.9807 11.0642 21.7672 11.3516 21.7593C12.16 21.7373 12.9763 21.6675 13.7761 21.7821C15.0406 21.9629 15.6446 22.869 15.468 24.2035C15.3279 25.2627 14.6882 25.8577 13.5853 25.9403C13.313 25.9609 13.0349 25.9766 12.7654 25.946C12.4037 25.9047 12.323 26.0506 12.3437 26.3823C12.3716 26.8428 12.3544 27.3061 12.3494 27.7688C12.3451 28.1695 12.1064 28.3617 11.6346 28.3574C11.16 28.3532 10.9449 28.1667 10.9391 27.7553C10.9391 27.7432 10.9391 27.7318 10.9391 27.7197C10.9384 26.8186 10.9384 25.9182 10.9384 25.0171Z" fill="white"/>
<path d="M6.04661 25.0434C6.04661 24.1423 6.04518 23.2419 6.04733 22.3408C6.04876 21.9309 6.18743 21.7565 6.58342 21.7515C7.67848 21.738 8.77353 21.7415 9.86859 21.7494C10.1588 21.7515 10.3025 21.9807 10.2967 22.3686C10.291 22.753 10.1445 22.9558 9.83571 22.9601C9.15737 22.9693 8.47832 22.975 7.79999 22.9587C7.52551 22.9523 7.40328 23.0227 7.43759 23.3145C7.48334 23.6989 7.27105 24.1964 7.52408 24.442C7.75853 24.6698 8.25031 24.4961 8.62771 24.5089C9.04872 24.5231 9.22027 24.6669 9.22456 25.037C9.22957 25.4242 9.05659 25.5787 8.61056 25.5815C8.31321 25.5837 8.01443 25.5936 7.71779 25.5787C7.49335 25.5673 7.42687 25.6563 7.43688 25.8691C7.45046 26.1766 7.46118 26.4869 7.43473 26.793C7.40829 27.0962 7.5441 27.1481 7.80857 27.1417C8.45116 27.1275 9.09447 27.1346 9.73707 27.1382C10.1395 27.1403 10.2939 27.3104 10.2967 27.7396C10.2989 28.1709 10.1409 28.3553 9.7485 28.3567C8.73636 28.3603 7.72494 28.3617 6.7128 28.356C6.18528 28.3532 6.04661 28.2044 6.0459 27.6734C6.0459 26.7979 6.04661 25.9203 6.04661 25.0434Z" fill="white"/>
<path d="M12.3505 23.9075C12.3505 23.6946 12.367 23.4811 12.3462 23.2704C12.3212 23.0113 12.432 22.9409 12.6722 22.9608C12.8845 22.9786 13.0996 22.953 13.3119 22.9701C13.8573 23.0149 14.0932 23.3523 14.0732 24.0349C14.0574 24.5666 13.7815 24.8612 13.2776 24.884C12.3505 24.9267 12.3505 24.9267 12.3505 24.0135C12.3505 23.9779 12.3505 23.9423 12.3505 23.9075Z" fill="#FBA91C"/>
</svg>
