<svg width="26" height="27" viewBox="0 0 26 27" fill="none" xmlns="http://www.w3.org/2000/svg">
<path d="M12.9307 26.6165C13.1574 26.5019 13.3969 26.5809 13.631 26.5706C13.4008 26.634 13.1633 26.5877 12.9307 26.6165Z" fill="#434343"/>
<path d="M19.454 13.3019C21.5495 13.3019 23.6451 13.3058 25.7406 13.2965C25.9732 13.2955 26.0157 13.3828 25.9962 13.5808C25.9201 14.3592 25.8489 15.1375 25.6616 15.8997C25.4939 16.583 25.2959 17.255 25.034 17.909C24.5956 19.0048 24.004 20.0157 23.2847 20.9438C22.2908 22.2264 21.0945 23.289 19.7007 24.1352C18.3269 24.9686 16.8503 25.5163 15.2799 25.8142C14.7825 25.9084 14.2758 25.9708 13.7657 25.9781C13.5794 25.9805 13.3995 26.0293 13.2117 26.0337C12.9791 26.0395 12.9142 25.9518 12.9249 25.7328C12.9401 25.4329 12.9288 25.132 12.9288 24.8316C12.9288 21.095 12.9288 17.3589 12.9288 13.6223C12.9288 13.3014 12.9288 13.3014 13.2395 13.3014C15.3111 13.3019 17.3823 13.3019 19.454 13.3019Z" fill="#434343"/>
<path d="M19.4421 12.7167C17.3544 12.7167 15.2671 12.7137 13.1794 12.7211C12.9785 12.7215 12.9253 12.6698 12.9253 12.4679C12.9316 8.39827 12.9321 4.3286 12.9238 0.258927C12.9233 0.0297186 12.995 -0.00685733 13.1974 0.000945518C17.6787 0.176022 21.2163 2.09162 23.7742 5.77359C25.1694 7.78234 25.8595 10.0398 25.9882 12.4762C25.9985 12.6708 25.9458 12.7206 25.7537 12.7201C23.6498 12.7142 21.546 12.7167 19.4421 12.7167Z" fill="#EB108C"/>
<path d="M12.345 19.6505C12.345 21.6812 12.342 23.7123 12.3503 25.743C12.3513 25.9493 12.2996 26.0005 12.0958 25.9854C9.38623 25.7855 6.96295 24.8462 4.85375 23.1379C2.31197 21.0789 0.757739 18.4215 0.173501 15.2028C0.072064 14.6445 0.0130552 14.0787 0.000375561 13.5091C-0.00303818 13.3633 0.0135429 13.2975 0.188619 13.298C4.17685 13.3033 8.16557 13.3043 12.1538 13.2975C12.3581 13.297 12.3459 13.3955 12.3459 13.534C12.344 15.573 12.345 17.612 12.345 19.6505Z" fill="#F7EC35"/>
<path d="M12.3449 6.37294C12.3449 8.40412 12.3419 10.4348 12.3497 12.466C12.3507 12.665 12.3044 12.722 12.0991 12.7215C8.14254 12.7152 4.18649 12.7147 0.22996 12.721C0.0314746 12.7215 -0.0080274 12.664 0.00123848 12.4772C0.164611 9.13271 1.41453 6.25638 3.75733 3.87261C5.84752 1.74634 8.39564 0.507147 11.3495 0.105788C11.6148 0.0696998 11.8845 0.0682367 12.1493 0.0306855C12.3527 0.00191253 12.3473 0.111152 12.3468 0.255017C12.3434 1.70927 12.3444 3.16353 12.3444 4.61778C12.3444 5.203 12.3444 5.78821 12.3449 6.37294Z" fill="#4BBEE9"/>
<path d="M17.9043 18.184C18.2666 17.688 18.5982 17.2408 18.9216 16.7883C19.0001 16.6785 19.083 16.6278 19.222 16.6337C19.4941 16.6454 19.7672 16.6371 20.0949 16.6371C19.7999 16.9911 19.537 17.3042 19.2766 17.6197C19.1327 17.7943 18.8981 17.965 18.8816 18.1533C18.866 18.3249 19.0883 18.5185 19.2073 18.7019C19.5185 19.1818 19.8306 19.6607 20.1627 20.1713C19.8335 20.1713 19.5443 20.1654 19.2556 20.1742C19.1361 20.1776 19.1093 20.0942 19.0644 20.0216C18.7894 19.5734 18.5153 19.1247 18.2388 18.6731C17.994 18.8516 17.8628 19.0623 17.8999 19.3715C17.9247 19.5797 17.8994 19.7933 17.9067 20.004C17.9106 20.123 17.8833 20.1703 17.7487 20.1752C17.0459 20.202 17.0459 20.2064 17.0459 19.4988C17.0459 18.6224 17.0503 17.7456 17.042 16.8692C17.0406 16.6971 17.0694 16.6098 17.2644 16.6342C17.4712 16.66 17.7492 16.5459 17.8696 16.6829C17.972 16.7995 17.9023 17.0696 17.9043 17.2715C17.9062 17.5559 17.9043 17.8397 17.9043 18.184Z" fill="#FEFEFE"/>
<path d="M18.0648 8.49482C18.1302 8.45483 18.1321 8.39582 18.1463 8.34169C18.3228 7.64284 18.5608 6.96351 18.7929 6.28222C18.8407 6.14226 18.9124 6.09349 19.0572 6.10178C19.3001 6.11592 19.5444 6.12129 19.7873 6.11154C19.9341 6.10568 19.9843 6.14811 19.9916 6.29783C20.0394 7.27026 20.0989 8.24269 20.1482 9.21512C20.1691 9.6316 20.1628 9.63208 19.7293 9.63208C19.6722 9.63208 19.6142 9.62428 19.5591 9.63355C19.3562 9.66671 19.3352 9.53991 19.3308 9.38824C19.3094 8.61723 19.2855 7.84669 19.263 7.07567C19.2616 7.02691 19.263 6.97863 19.263 6.92888C19.2006 6.91523 19.1967 6.96839 19.1894 6.99618C18.9816 7.78769 18.6773 8.54846 18.4403 9.33021C18.3877 9.50431 18.3077 9.57112 18.118 9.56478C17.6859 9.54967 17.6835 9.56186 17.5669 9.16001C17.3509 8.41679 17.1114 7.67942 16.9261 6.92254C16.891 7.67503 16.8559 8.42801 16.8207 9.18049C16.7998 9.6316 16.7998 9.63306 16.3506 9.63062C15.9956 9.62867 15.9946 9.69548 16.0288 9.27852C16.0985 8.42947 16.1478 7.57896 16.198 6.72894C16.2341 6.11544 16.2287 6.11495 16.8329 6.11446C17.3938 6.11397 17.3899 6.11495 17.5567 6.65237C17.7459 7.26002 17.9331 7.86766 18.0648 8.49482Z" fill="#FFFEFE"/>
<path d="M8.9188 16.6689C8.53597 17.2994 8.16631 17.9163 7.78641 18.5269C7.70936 18.6508 7.67717 18.7717 7.67961 18.9146C7.68546 19.2633 7.67668 19.6125 7.684 19.9612C7.68692 20.1109 7.65376 20.1899 7.48161 20.1733C7.32897 20.1587 7.17291 20.1597 7.01978 20.1728C6.86128 20.1865 6.81105 20.1153 6.83446 19.9753C6.99344 19.0326 6.64134 18.2402 6.1244 17.4882C5.94835 17.2316 5.81131 16.9483 5.6416 16.6508C5.9542 16.6508 6.22779 16.6562 6.5004 16.6484C6.61988 16.645 6.64817 16.7225 6.68523 16.8035C6.88274 17.2375 7.08074 17.6715 7.2958 18.1436C7.49283 17.7066 7.6879 17.3053 7.85322 16.8917C7.9293 16.7011 8.03269 16.6269 8.23117 16.6489C8.45355 16.6737 8.68032 16.6162 8.9188 16.6689Z" fill="#FFFFFE"/>
<path d="M7.96905 9.01132C8.12901 9.03229 8.30896 9.00156 8.47624 8.94792C8.62205 8.90159 8.63912 8.97133 8.66741 9.07276C8.79811 9.54484 8.76885 9.57995 8.28068 9.64774C7.71351 9.72674 7.15951 9.70138 6.6494 9.42194C5.97786 9.05472 5.75548 8.44658 5.81352 7.71848C5.86862 7.02647 6.23146 6.53342 6.85959 6.25252C7.42773 5.99844 8.02172 5.99259 8.62157 6.13792C8.75519 6.1701 8.82737 6.23204 8.75909 6.37737C8.75226 6.392 8.74788 6.4076 8.74349 6.42321C8.6323 6.80555 8.63425 6.79238 8.25191 6.7363C7.92126 6.68753 7.5872 6.68704 7.27704 6.84993C6.8074 7.0962 6.60551 7.60875 6.74108 8.21006C6.84447 8.6675 7.2707 8.99717 7.7774 9.01083C7.83397 9.01278 7.89102 9.01132 7.96905 9.01132Z" fill="#FEFEFE"/>
</svg>
