<svg width="26" height="29" viewBox="0 0 26 29" fill="none" xmlns="http://www.w3.org/2000/svg">
<path d="M20.6164 26.0107C20.6132 26.0364 20.6067 26.0638 20.6067 26.0896C20.5439 28.5164 20.4923 28.5647 18.014 28.568C12.5996 28.5728 7.18529 28.576 1.76933 28.5792C0.428636 28.5792 0 28.1474 0 26.7986C0 19.4006 0 12.0027 0 4.60466C0 3.25268 0.420578 2.82888 1.76933 2.82244C2.8941 2.8176 4.02047 2.81921 5.14524 2.8176C5.39823 2.55655 5.72696 2.58073 6.04763 2.57911C8.72741 2.57589 11.4056 2.57428 14.0854 2.58073C14.5962 2.58234 15.0989 2.6339 15.5308 2.95135C15.6919 4.02938 15.8531 5.10742 15.8498 6.2064C15.8466 7.23126 16.1802 7.54549 17.2002 7.58094C18.2927 7.61961 19.3966 7.50842 20.4698 7.83232C20.8211 8.12076 20.8501 8.51717 20.8501 8.92808C20.8517 14.3199 20.8517 19.7116 20.8484 25.1034C20.8484 25.4241 20.8726 25.7544 20.6164 26.0107Z" fill="#08A0C6"/>
<path d="M5.18658 2.16982C5.09473 0.696992 5.52498 0.247408 7.00909 0.247408C8.10324 0.247408 9.199 0.232906 10.2931 0.224849C10.5784 -0.0394229 10.9361 0.00408519 11.2793 0.00247378C14.0767 -0.000749047 16.8758 -0.000749047 19.6732 0.00247378C20.0164 0.00247378 20.3741 -0.039423 20.6594 0.221626C21.0638 1.01766 20.9833 1.87816 20.9865 2.72737C20.9945 5.00752 21.0074 5.02041 23.2521 5.01719C24.1013 5.01558 24.9634 4.93823 25.7643 5.33302C26.0366 5.61663 25.998 5.97437 25.998 6.31921C26.0012 11.6949 26.0012 17.0689 25.998 22.4446C25.998 22.7895 26.0431 23.1472 25.7772 23.4356C25.8497 26.1928 25.1616 26.0268 23.0958 26.0026C22.535 25.9962 21.9727 25.9865 21.4119 25.9784C20.9011 25.7835 21.0106 25.3403 21.0106 24.952C21.009 19.5634 20.9929 14.1732 21.0235 8.78467C21.0284 7.99024 20.7705 7.39885 20.2275 6.86064C19.0109 5.65208 17.7927 4.44353 16.5905 3.21724C16.0636 2.67903 15.4287 2.40509 14.6504 2.40831C11.8159 2.41637 8.98146 2.41315 6.14699 2.41153C5.81503 2.41315 5.4428 2.51305 5.18658 2.16982Z" fill="#F7B31A"/>
<path d="M5.18457 2.16982C7.48244 2.17304 9.78193 2.16176 12.0798 2.18593C12.7985 2.19399 13.5123 2.12148 14.231 2.11825C15.6733 2.11181 16.7046 2.62585 17.6182 3.72967C18.519 4.81898 19.589 5.77294 20.6187 6.75106C21.0828 7.19259 21.2681 7.66473 21.2649 8.30769C21.2439 13.751 21.252 19.1928 21.2568 24.6361C21.2568 25.0873 21.1923 25.5514 21.4147 25.98C21.2052 25.9784 20.9957 25.9768 20.7863 25.9768C20.5993 25.7077 20.696 25.4048 20.696 25.1195C20.6896 19.9227 20.6686 14.7243 20.7105 9.52753C20.7186 8.60419 20.5059 7.90806 19.8146 7.278C18.49 6.06944 17.1993 4.82059 15.9988 3.48795C15.4573 2.8869 14.824 2.73381 14.0796 2.73704C11.3724 2.74348 8.66683 2.74187 5.96127 2.73381C5.70344 2.73381 5.42467 2.82566 5.18618 2.64035C5.18618 2.48243 5.18618 2.32613 5.18457 2.16982Z" fill="#D79829"/>
<path d="M5.18809 2.63873C8.24655 2.65162 11.305 2.68546 14.3635 2.66613C15.145 2.66129 15.7686 2.88528 16.3084 3.43316C17.5508 4.6949 18.7965 5.95341 20.0582 7.19581C20.569 7.70018 20.7688 8.2674 20.7656 8.99253C20.7398 13.9299 20.7479 18.8657 20.7511 23.803C20.7511 24.5265 20.7753 25.2517 20.7898 25.9752C20.7334 25.9865 20.677 25.9994 20.6206 26.0107C20.4804 24.5991 20.5577 23.1826 20.5529 21.7678C20.5384 17.4911 20.5497 13.216 20.5384 8.93935C20.5368 8.61224 20.6625 8.23033 20.3112 7.97573C19.2058 7.58254 18.6176 6.56736 17.8087 5.82933C17.1883 5.26211 16.6839 4.55631 15.9894 4.05839C15.6542 3.81829 15.5607 3.47022 15.4608 3.11249C15.0209 2.74347 14.4859 2.89172 13.9993 2.88689C11.3695 2.86272 8.73964 2.87722 6.10982 2.87239C5.78914 2.87239 5.47009 2.83371 5.14941 2.81438C5.16069 2.75798 5.17358 2.69836 5.18809 2.63873Z" fill="#8F944A"/>
<path d="M3.89594 17.736C3.89594 17.0125 3.86693 16.2858 3.90239 15.5639C3.97007 14.2409 4.98848 13.2241 6.2631 13.1596C7.60541 13.0919 8.70923 13.9041 8.9026 15.2287C9.14431 16.8788 8.98156 18.5482 8.97672 20.2096C8.97511 20.5882 8.72857 20.8219 8.35794 20.8042C8.00182 20.7864 7.76816 20.5544 7.74883 20.1773C7.7311 19.8293 7.74399 19.4796 7.74077 19.1315C7.73916 18.9446 7.81328 18.6916 7.71982 18.5788C7.13649 17.873 6.34045 18.4128 5.65077 18.2759C5.28175 18.2017 5.12384 18.4144 5.13673 18.7883C5.15123 19.2443 5.15123 19.702 5.12384 20.1564C5.09966 20.5512 4.88212 20.8299 4.46477 20.8138C4.07964 20.7993 3.90561 20.5077 3.89916 20.1515C3.88466 19.3458 3.89594 18.5417 3.89594 17.736Z" fill="#E8ECED"/>
<path d="M10.3363 15.7025C10.3363 15.1143 10.3363 14.5245 10.3363 13.9364C10.3363 13.511 10.4765 13.1629 10.9648 13.1951C11.416 13.2241 11.5835 13.5512 11.5803 13.9831C11.5755 14.7856 11.6061 15.5913 11.569 16.3922C11.5465 16.9046 11.756 17.0271 12.2265 17.0174C12.668 17.0077 12.9323 16.94 12.9065 16.4067C12.8694 15.659 12.9017 14.908 12.8904 14.1587C12.8839 13.6689 12.9307 13.1693 13.5462 13.179C14.107 13.1871 14.1602 13.6576 14.1521 14.1217C14.1392 14.871 14.1634 15.6219 14.1489 16.3712C14.1408 16.7725 14.2085 17.0303 14.7048 17.0158C15.0884 17.0045 15.3978 17.2204 15.3913 17.641C15.3849 18.06 15.0755 18.2646 14.6871 18.2501C14.1779 18.2324 14.136 18.5257 14.1441 18.9108C14.1521 19.3394 14.1699 19.7713 14.1247 20.1951C14.0877 20.5303 13.9024 20.8235 13.5108 20.8123C13.1289 20.8026 12.9387 20.5399 12.9178 20.179C12.892 19.7246 12.8759 19.2685 12.8952 18.8141C12.913 18.3919 12.7341 18.2807 12.3312 18.2549C10.317 18.1244 10.317 18.1131 10.3363 15.7025Z" fill="#EDEEF0"/>
<path d="M15.4572 3.11572C17.2023 4.60789 18.817 6.23219 20.3075 7.97735C19.2408 7.97574 18.174 7.97574 17.1057 7.97091C15.8407 7.96446 15.3895 7.56644 15.4781 6.28376C15.5523 5.22023 15.0495 4.1712 15.4572 3.11572Z" fill="#1082A8"/>
<path d="M20.6178 0.429474C20.7757 0.52777 20.9336 0.626066 21.0916 0.725974C22.3871 2.03444 23.6843 3.34452 24.9799 4.65299C25.2039 4.87858 25.4665 5.07356 25.5745 5.39262C24.3482 5.44902 23.1187 5.32172 21.8908 5.48931C21.2704 5.57471 20.6178 4.84313 20.6081 4.12122C20.5952 2.8901 20.613 1.65898 20.6178 0.429474Z" fill="#D99628"/>
<path d="M6.44631 17.0158C5.8807 16.9158 5.03471 17.3541 5.1169 16.1504C5.19102 15.0466 5.60999 14.3972 6.43986 14.4069C7.28263 14.4165 7.67259 15.0321 7.76283 16.1553C7.86113 17.3799 7.00064 16.9094 6.44631 17.0158Z" fill="#0DA0C4"/>
</svg>
