<svg width="26" height="33" viewBox="0 0 26 33" fill="none" xmlns="http://www.w3.org/2000/svg">
<path d="M23.6937 31.0357C16.4181 31.0357 9.14308 31.0357 1.86746 31.0357C1.29804 30.7773 1.12886 30.3304 1.13492 29.7198C1.15918 27.3057 1.14462 24.891 1.14462 22.4769C1.14462 20.1938 1.14341 17.9107 1.14523 15.6276C1.14584 14.946 1.53757 14.5591 2.21856 14.5536C2.51146 14.5512 2.80435 14.5464 3.09724 14.5427C4.38342 14.5421 5.67021 14.5421 6.95639 14.5415C7.02673 14.5458 7.09707 14.5536 7.16742 14.5536C10.918 14.5524 14.6692 14.5512 18.4198 14.5488C18.4799 14.5488 18.5405 14.5427 18.6005 14.5391C19.8904 14.5397 21.1796 14.5397 22.4694 14.5403C22.7617 14.5433 23.0546 14.5482 23.3468 14.5488C24.0503 14.5506 24.4208 14.9229 24.4208 15.6324C24.4208 20.3642 24.4141 25.096 24.4299 29.8277C24.4323 30.4171 24.2413 30.8162 23.6937 31.0357ZM12.7669 28.1286C13.5043 28.1286 14.2417 28.128 14.9797 28.1292C15.1058 28.1292 15.2174 28.1437 15.212 27.9515C15.1992 27.5082 15.2253 27.0643 15.1052 26.6277C14.8214 25.5962 14.5673 24.5563 14.2635 23.5308C14.138 23.107 14.1774 22.7892 14.5498 22.5266C14.7693 22.372 14.9112 22.1446 15.01 21.8984C15.3235 21.1155 15.2865 20.3533 14.8099 19.645C14.2884 18.8706 13.5874 18.3479 12.6147 18.4431C11.5438 18.5474 10.8392 19.2132 10.4923 20.192C10.1661 21.1131 10.3522 21.9706 11.1278 22.6315C11.3801 22.8468 11.4225 23.0778 11.3358 23.3853C11.0642 24.347 10.818 25.3161 10.5469 26.2778C10.3977 26.8084 10.3365 27.3439 10.3486 27.8939C10.3522 28.077 10.3959 28.1359 10.5857 28.1328C11.3122 28.1219 12.0393 28.1286 12.7669 28.1286Z" fill="#FBD737"/>
<path d="M13.6906 0.00121281C13.929 0.148569 14.2067 0.122493 14.4656 0.169186C18.6686 0.927796 21.9038 4.34669 22.3998 8.57393C22.4477 8.98386 22.4653 9.39985 22.4677 9.81281C22.4756 11.3882 22.4707 12.9643 22.4707 14.5397C21.1809 14.5391 19.8917 14.5391 18.6019 14.5385C18.6019 12.9734 18.6055 11.4089 18.6007 9.84374C18.5958 8.24223 18.0652 6.85053 16.9658 5.66926C15.0714 3.63417 11.6895 3.30004 9.44642 4.94461C7.79943 6.15196 6.98321 7.785 6.96442 9.81584C6.94986 11.3907 6.95896 12.9655 6.95775 14.5403C5.67157 14.5409 4.38478 14.5409 3.0986 14.5415C3.0992 12.8066 3.04584 11.0699 3.11315 9.33739C3.21745 6.65588 4.28351 4.38429 6.26523 2.56266C7.73879 1.20856 9.4731 0.392343 11.4585 0.112185C11.5761 0.0958116 11.7247 0.130377 11.812 0C12.4372 0.00121281 13.0636 0.00121281 13.6906 0.00121281Z" fill="#556F7B"/>
<path d="M12.767 28.1286C12.0393 28.1286 11.3122 28.1219 10.5845 28.1328C10.3947 28.1359 10.3511 28.077 10.3474 27.8939C10.3359 27.3439 10.3966 26.8084 10.5457 26.2778C10.8168 25.3161 11.063 24.347 11.3347 23.3853C11.4214 23.0778 11.3789 22.8468 11.1267 22.6315C10.3517 21.9699 10.1649 21.1131 10.4912 20.192C10.838 19.2132 11.5427 18.5474 12.6136 18.4431C13.5862 18.3485 14.2872 18.8712 14.8087 19.645C15.286 20.3533 15.3224 21.1149 15.0089 21.8984C14.9106 22.1446 14.7687 22.372 14.5486 22.5266C14.1763 22.7892 14.1369 23.1063 14.2624 23.5308C14.5662 24.5563 14.8203 25.5962 15.1041 26.6277C15.2241 27.0643 15.1981 27.5082 15.2108 27.9515C15.2162 28.1437 15.1047 28.1292 14.9785 28.1292C14.2424 28.128 13.5044 28.1286 12.767 28.1286Z" fill="#556F7B"/>
<path d="M26 30.7834L1.02637 14.2342L-2.42601e-06 15.783L24.9736 32.3322L26 30.7834Z" fill="#ED2024"/>
<path d="M1.02641 32.3315L26 15.7823L24.9736 14.2334L4.08868e-05 30.7826L1.02641 32.3315Z" fill="#ED2024"/>
</svg>
