<svg width="26" height="25" viewBox="0 0 26 25" fill="none" xmlns="http://www.w3.org/2000/svg">
<path d="M13.0324 22.1099C12.6058 22.4632 12.2265 22.8721 11.76 23.1797C9.49918 24.6702 7.08911 24.9649 4.59608 23.9166C2.02818 22.836 0.510168 20.8386 0.0867628 18.0951C-0.377044 15.087 1.04562 12.1329 3.70887 10.5653C4.37037 10.1759 5.07228 9.89091 5.82428 9.73199C5.9471 9.75839 5.95303 9.87097 5.98481 9.95878C6.50841 11.4073 7.38485 12.5973 8.62705 13.5055C9.36181 14.0431 10.1688 14.4503 11.0565 14.6814C11.1756 14.7127 11.3081 14.7207 11.3894 14.836C11.4223 15.1323 11.2655 15.3898 11.2219 15.6715C10.8674 17.9658 11.3776 20.0257 12.8676 21.8254C12.9295 21.9003 13.0076 21.9655 13.0351 22.0657C13.0335 22.0808 13.0329 22.0953 13.0324 22.1099Z" fill="#ED1B73"/>
<path d="M13.0325 22.1099C13.032 22.098 13.0293 22.0867 13.0244 22.0759C13.1084 21.799 13.3433 21.6272 13.5033 21.4036C14.7008 19.7283 15.1048 17.8731 14.8263 15.8466C14.78 15.511 14.6388 15.191 14.6663 14.8446C14.7223 14.7353 14.8322 14.7175 14.9346 14.6884C16.7112 14.1918 18.122 13.1747 19.1697 11.6653C19.578 11.0771 19.891 10.4312 20.0995 9.74061C20.1146 9.71637 20.1361 9.70183 20.1636 9.69644C20.6527 9.86613 21.1575 9.98733 21.6277 10.2157C24.0233 11.3782 25.4922 13.2582 25.907 15.8902C26.4258 19.1789 24.7386 22.3437 21.7753 23.7722C18.8093 25.2019 15.2249 24.5205 13.0325 22.1099Z" fill="#FDE811"/>
<path d="M5.84549 9.70021C4.90603 6.66473 5.96077 3.28395 8.72691 1.35277C11.2927 -0.43943 14.6815 -0.471212 17.3178 1.37916C19.9854 3.25163 21.115 6.61463 20.1637 9.69644C20.1535 9.70021 20.1454 9.70613 20.1395 9.71475C19.9035 9.75515 19.6783 9.67381 19.4483 9.65065C18.6236 9.56715 17.8026 9.57846 16.9908 9.74492C15.8031 9.9884 14.7429 10.5066 13.8013 11.271C13.5368 11.4859 13.2944 11.7235 13.0563 11.9664C13.0294 11.9805 13.0008 11.9837 12.9717 11.9767C12.7859 11.8237 12.6194 11.6497 12.439 11.4903C11.8804 10.9957 11.2663 10.5917 10.5859 10.2777C9.48268 9.76862 8.3272 9.56284 7.11894 9.60809C6.81458 9.6194 6.51454 9.66789 6.21287 9.69859C6.09059 9.71098 5.96777 9.76485 5.84549 9.70021Z" fill="#0F9AD7"/>
<path d="M5.84577 9.70022C6.64571 9.5273 7.44943 9.4966 8.26553 9.57094C8.81229 9.62103 9.33482 9.74439 9.85249 9.90923C10.7914 10.2082 11.6307 10.6871 12.3692 11.3346C12.5885 11.5269 12.8497 11.6847 12.9876 11.9595C13.0129 12.0311 12.9688 12.0796 12.9289 12.127C12.2863 12.8984 11.7842 13.7495 11.4702 14.7062C11.4556 14.7498 11.4298 14.7854 11.3904 14.8107C11.3775 14.8134 11.3646 14.8156 11.3511 14.8183C8.6286 14.1217 6.80031 12.4491 5.86731 9.79772C5.85869 9.77348 5.83876 9.75355 5.82422 9.73146C5.82799 9.71907 5.83499 9.70884 5.84577 9.70022Z" fill="#3A54A5"/>
<path d="M14.6938 14.8236C14.7708 15.281 14.8979 15.7281 14.9426 16.1929C15.1581 18.4344 14.5424 20.4006 13.0255 22.0754C12.5972 21.701 12.2923 21.2296 12.0144 20.7437C11.2764 19.4531 10.9677 18.0573 11.042 16.5765C11.0722 15.9786 11.1923 15.3946 11.3518 14.8188C11.3582 14.8091 11.3652 14.7994 11.3722 14.7902C11.5522 14.724 11.7262 14.7864 11.9007 14.8166C12.6381 14.9432 13.3751 14.941 14.1125 14.8182C14.279 14.7908 14.4433 14.7342 14.6162 14.7654C14.6491 14.7768 14.6744 14.7961 14.6938 14.8236Z" fill="#EE2524"/>
<path d="M14.6925 14.8236C14.6763 14.8183 14.6623 14.8096 14.6505 14.7983C14.5794 14.7822 14.5519 14.7272 14.5336 14.6647C14.3197 13.9154 13.9302 13.2561 13.4912 12.621C13.3894 12.4734 13.2838 12.3301 13.1572 12.2019C13.0899 12.1335 13.0042 12.071 13.0193 11.9552C13.4589 11.4014 14.0197 10.9925 14.6117 10.6214C15.4536 10.0935 16.3716 9.76271 17.3482 9.60811C18.2564 9.46482 19.1657 9.49929 20.0685 9.6749C20.0933 9.67975 20.1149 9.7013 20.1375 9.71477C20.0438 10.2987 19.762 10.8061 19.4668 11.3017C18.3711 13.1429 16.7621 14.2973 14.6925 14.8236Z" fill="#6DBE45"/>
<path d="M13.02 11.9551C13.7817 12.7777 14.3274 13.7242 14.6506 14.7983C13.8372 15.0186 13.0071 14.9922 12.1786 14.9513C11.9076 14.9378 11.6404 14.8463 11.3711 14.7908C11.7088 13.7619 12.2028 12.8224 12.9521 12.0289C12.9688 12.0112 12.9758 11.9832 12.9871 11.96C12.9985 11.96 13.0092 11.9584 13.02 11.9551Z" fill="#020101"/>
</svg>
