<svg width="26" height="26" viewBox="0 0 26 26" fill="none" xmlns="http://www.w3.org/2000/svg">
<path d="M25.5063 24.8951C24.036 23.4243 22.5663 21.9535 21.0944 20.4838C20.7065 20.0959 20.3137 19.7129 19.9232 19.3277C19.7991 19.2844 19.7168 19.357 19.6371 19.4323C19.4995 19.5623 19.3706 19.701 19.2346 19.8326C19.0174 20.0428 18.8364 20.0743 18.701 19.9264C18.5602 19.773 18.5862 19.6317 18.7974 19.4144C18.9291 19.279 19.0661 19.1479 19.1972 19.0114C19.2736 18.9323 19.3457 18.851 19.3218 18.728C19.0147 18.4182 18.707 18.1083 18.3998 17.7984C18.24 17.7681 18.1533 17.8824 18.0585 17.9756C17.7248 18.3022 17.4052 18.6435 17.0644 18.9632C16.9322 19.0872 16.7719 19.1235 16.6267 18.9984C16.4723 18.8651 16.4848 18.7004 16.5991 18.5395C16.6516 18.4658 16.7166 18.4041 16.78 18.3407C17.0601 18.0612 17.3418 17.7843 17.6197 17.5032C17.708 17.4138 17.8055 17.3282 17.7871 17.1825C17.4761 16.8742 17.1652 16.5665 16.8537 16.2583C16.7307 16.2312 16.6484 16.3022 16.5693 16.3786C16.4127 16.5286 16.2665 16.6879 16.1077 16.8352C15.9327 16.9972 15.7594 17.0086 15.6364 16.8591C15.5021 16.6965 15.5492 16.5427 15.6863 16.4029C15.832 16.255 15.982 16.112 16.1256 15.9625C16.2074 15.8774 16.2946 15.7935 16.2545 15.657C15.9452 15.3487 15.6353 15.041 15.326 14.7328C15.1906 14.716 15.1104 14.8064 15.027 14.8888C14.7312 15.1786 14.4397 15.4733 14.1467 15.7659C14.0632 15.8493 13.9744 15.923 13.8628 15.9679C13.7349 16.0194 13.6331 15.9766 13.548 15.8829C13.463 15.7891 13.431 15.6824 13.4874 15.5595C13.5258 15.4749 13.5925 15.4137 13.6553 15.3503C13.9533 15.0497 14.255 14.7528 14.5513 14.4505C14.6391 14.3617 14.7431 14.2799 14.7247 14.132C14.417 13.8227 14.1093 13.5133 13.8016 13.2035C13.6526 13.1623 13.5681 13.2652 13.4776 13.3513C13.3211 13.5003 13.1824 13.6683 13.0134 13.8032C12.8736 13.9148 12.7154 13.9521 12.58 13.8004C12.4505 13.6563 12.4711 13.5057 12.6049 13.3681C12.7555 13.2132 12.912 13.0642 13.0616 12.9088C13.1434 12.8242 13.2295 12.7403 13.2002 12.6048C12.8877 12.2896 12.5751 11.9743 12.2625 11.659C12.1265 11.6481 12.0507 11.7446 11.9683 11.8264C11.6856 12.1054 11.4066 12.3871 11.1265 12.6688C11.0431 12.7522 10.9537 12.827 10.8491 12.8822C10.7316 12.9445 10.6194 12.9277 10.5225 12.8443C10.425 12.7598 10.4 12.6476 10.4347 12.5241C10.4623 12.4244 10.5333 12.3535 10.6026 12.2825C10.8995 11.9797 11.2034 11.6839 11.5014 11.3821C11.5897 11.2928 11.6899 11.2072 11.6606 11.0587C11.3502 10.751 11.0398 10.4439 10.7299 10.1362C10.6075 10.1134 10.5268 10.1855 10.4482 10.2608C10.3063 10.3973 10.1703 10.5403 10.0289 10.6768C9.81658 10.8816 9.6649 10.9081 9.51809 10.7695C9.37291 10.6319 9.39674 10.4645 9.59231 10.2591C9.72828 10.1161 9.87238 9.98177 10.0089 9.83984C10.0896 9.75533 10.1763 9.6719 10.1319 9.53592C8.94006 8.3387 7.74771 7.14201 6.55698 5.94369C6.38633 5.77251 6.22219 5.59428 6.05533 5.4193C5.82293 4.8884 5.34133 4.57853 4.9502 4.1901C4.85919 4.09964 4.7308 4.1121 4.66742 4.25945C4.64358 4.35588 4.6425 4.45501 4.6425 4.55361C4.63924 5.93773 4.63924 7.32132 4.6425 8.70491C4.64304 8.81217 4.63762 8.92106 4.67825 9.02507C4.70209 9.15021 4.82452 9.17784 4.90199 9.24772C5.11868 9.44329 5.11922 9.61718 4.90361 9.81275C4.82614 9.88263 4.70317 9.90864 4.67987 10.0327C4.62895 10.4412 4.5932 10.8496 4.70859 11.2548C4.78768 11.3594 4.90144 11.3762 5.02062 11.3811C5.18152 11.3876 5.34296 11.3811 5.50439 11.3881C5.7823 11.4006 5.92478 11.51 5.9199 11.7039C5.91503 11.8887 5.77851 11.9916 5.51631 12.0051C5.35542 12.0133 5.19398 12.0057 5.03254 12.0127C4.90578 12.0181 4.7801 12.0284 4.70209 12.1509C4.60078 12.5555 4.62353 12.9629 4.68367 13.3709C4.70642 13.4597 4.78605 13.4868 4.84944 13.5345C5.1371 13.7511 5.13872 13.9608 4.85919 14.1813C4.79039 14.2355 4.69829 14.2653 4.67987 14.366C4.62841 14.7734 4.59482 15.1802 4.70696 15.5844C4.79147 15.7003 4.91661 15.709 5.04338 15.7138C5.22215 15.7203 5.40146 15.7111 5.57969 15.7241C5.76442 15.7371 5.89281 15.8281 5.89932 16.0194C5.90582 16.216 5.76767 16.3022 5.59161 16.3276C5.41446 16.3531 5.23461 16.3363 5.05584 16.3439C4.92095 16.3498 4.78443 16.3525 4.701 16.4858C4.60241 16.8899 4.62299 17.2962 4.68367 17.7036C4.70642 17.7919 4.7866 17.819 4.84998 17.8672C5.1371 18.0834 5.13872 18.2936 4.85919 18.5135C4.79039 18.5677 4.69829 18.5975 4.67987 18.6983C4.62841 19.1056 4.59482 19.5125 4.70696 19.9166C4.79147 20.0325 4.91661 20.0412 5.04338 20.0461C5.22215 20.0526 5.40146 20.0439 5.57969 20.0564C5.76442 20.0694 5.89227 20.1604 5.89932 20.3511C5.90582 20.5483 5.76767 20.6344 5.59215 20.6599C5.41446 20.6859 5.23461 20.6685 5.05638 20.6761C4.92149 20.6821 4.78497 20.6848 4.701 20.8175C4.60187 21.2211 4.62408 21.6263 4.68313 22.0326C4.70425 22.109 4.76818 22.141 4.82614 22.1854C5.11814 22.4086 5.12139 22.6052 4.84294 22.8387C4.77414 22.8967 4.69558 22.9438 4.67392 23.0397C4.60999 23.6047 4.63166 24.1725 4.66091 24.738C4.675 25.004 4.89007 25.2213 5.15443 25.2315C5.86464 25.2592 6.57594 25.2814 7.28669 25.2185C7.31649 25.2083 7.34412 25.1963 7.37175 25.1817C7.44705 25.1237 7.4633 25.0306 7.51043 24.9563C7.67999 24.6871 7.92052 24.6909 8.09117 24.965C8.13721 25.0392 8.14913 25.1357 8.23039 25.186C8.25639 25.198 8.28294 25.2093 8.30948 25.2191C8.70928 25.2581 9.10908 25.2895 9.50726 25.1963C9.53597 25.1828 9.56035 25.1644 9.57985 25.1389C9.63998 25.043 9.64702 24.9358 9.64973 24.8274C9.65515 24.6297 9.6351 24.4309 9.66815 24.2348C9.69524 24.0755 9.79275 23.9747 9.96069 23.9704C10.12 23.9666 10.2045 24.0668 10.2462 24.2093C10.2874 24.3496 10.27 24.4948 10.2771 24.6384C10.2857 24.815 10.2451 25.0008 10.3643 25.1584C10.3876 25.1785 10.4136 25.1942 10.4428 25.2039C10.8405 25.2803 11.2386 25.2684 11.6373 25.2104C11.6666 25.2023 11.6931 25.1904 11.7175 25.1725C11.7787 25.1145 11.7961 25.0322 11.8378 24.9639C12.0084 24.6871 12.25 24.6871 12.4223 24.9634C12.4689 25.0381 12.4808 25.1357 12.5632 25.1866C12.5892 25.198 12.6157 25.2093 12.6417 25.2191C13.0415 25.2581 13.4419 25.2895 13.8395 25.1963C13.8687 25.1828 13.8926 25.1638 13.9126 25.1389C13.9896 25.0165 13.9798 24.88 13.9831 24.7451C13.9868 24.5744 13.9695 24.4016 14.0004 24.2326C14.0296 24.0728 14.1277 23.9709 14.2962 23.9709C14.4641 23.9709 14.5627 24.0717 14.5914 24.2326C14.6234 24.4103 14.6044 24.5918 14.6093 24.7716C14.6131 24.9065 14.6044 25.0436 14.6965 25.1579C14.7193 25.1785 14.7458 25.1936 14.7751 25.2039C15.1722 25.2803 15.5709 25.2684 15.9696 25.2104C15.9988 25.2023 16.0254 25.1904 16.0498 25.1725C16.111 25.1145 16.1283 25.0322 16.17 24.9639C16.3407 24.6871 16.5823 24.6871 16.7546 24.9634C16.8011 25.0381 16.8131 25.1357 16.8954 25.1866C16.9214 25.198 16.948 25.2093 16.974 25.2191C17.3738 25.2581 17.7741 25.2895 18.1717 25.1963C18.201 25.1828 18.2248 25.1638 18.2449 25.1389C18.3218 25.0165 18.312 24.88 18.3153 24.7451C18.3191 24.5744 18.3017 24.4016 18.3326 24.2326C18.3624 24.0728 18.4605 23.9709 18.6284 23.9709C18.7963 23.9709 18.8949 24.0717 18.9237 24.2326C18.9556 24.4103 18.9372 24.5918 18.9421 24.7716C18.9453 24.9065 18.9367 25.0436 19.0288 25.1579C19.0515 25.1785 19.0781 25.1942 19.1073 25.2039C19.5049 25.2803 19.9031 25.2684 20.3024 25.2104C20.3316 25.2023 20.3582 25.1898 20.3831 25.172C20.4432 25.114 20.4606 25.0316 20.5028 24.9639C20.6735 24.6882 20.9151 24.6882 21.0857 24.9618C21.1361 25.0425 21.1475 25.1525 21.2493 25.1969C21.2775 25.2061 21.3057 25.2169 21.3327 25.2283C21.4741 25.2559 21.6182 25.2505 21.7623 25.2511C22.8696 25.2516 23.9769 25.2516 25.0842 25.2511C25.2105 25.2511 25.3367 25.2548 25.4618 25.238C25.5615 25.225 25.6628 25.2083 25.6677 25.0739C25.6141 25.0143 25.5631 24.952 25.5063 24.8951ZM14.4847 21.226C12.626 21.2281 10.7668 21.2276 8.90756 21.2287C8.76996 21.2287 8.65728 21.2547 8.65836 21.0326C8.66865 19.1197 8.66432 17.2063 8.6654 15.2935C8.6654 15.2691 8.67461 15.2447 8.68274 15.2057C10.6904 17.2134 12.6807 19.2031 14.6748 21.1967C14.6272 21.2628 14.5492 21.226 14.4847 21.226Z" fill="#FFCB2A"/>
<path d="M6.05575 5.41932C5.6267 5.00164 5.19765 4.58396 4.7686 4.16683C4.67108 4.1885 4.59741 4.13053 4.51452 4.0964C4.25503 3.9886 4.0703 4.09695 4.03238 4.37702C4.01667 4.49349 4.02263 4.61105 4.02263 4.72806C4.02209 5.98109 4.02209 7.23412 4.02263 8.48769C4.02263 8.69517 4.02046 8.90211 4.00584 9.10906C4.03076 9.39563 4.02642 9.68221 4.00692 9.96879C4.0313 10.3984 4.03238 10.828 4.00692 11.2576C4.02805 11.549 4.02859 11.8405 4.00692 12.1325C4.03076 12.5631 4.03238 12.9933 4.00692 13.4234C4.02751 13.7149 4.02913 14.0069 4.00692 14.2983C4.03076 14.729 4.03238 15.1591 4.00692 15.5893C4.02751 15.8807 4.02913 16.1727 4.00692 16.4642C4.03076 16.8948 4.03238 17.325 4.00692 17.7551C4.02751 18.0466 4.02913 18.3386 4.00692 18.63C4.03076 19.0607 4.03238 19.4908 4.00692 19.921C4.02805 20.2124 4.02859 20.5044 4.00692 20.7959C4.03076 21.2265 4.03184 21.6578 4.00692 22.0884C4.02859 22.3826 4.02751 22.6768 4.00692 22.9709C4.0378 23.6026 4.02263 24.2342 4.01721 24.8659C4.01613 24.9645 4.01559 25.0663 3.94191 25.1471C3.8314 25.2424 3.69542 25.2467 3.56053 25.2473C2.83407 25.2516 2.10706 25.2576 1.3806 25.2446C0.945587 25.237 0.758148 25.0495 0.747855 24.6194C0.741896 24.3783 0.715351 24.1351 0.779817 23.8978C0.788485 23.8675 0.80257 23.8388 0.819364 23.8122C0.950463 23.6838 1.11894 23.7125 1.27875 23.7066C1.42285 23.7012 1.56858 23.7174 1.71106 23.6893C1.87466 23.6573 2.00522 23.5717 2.00413 23.3881C2.00305 23.2039 1.87303 23.1199 1.70618 23.0939C1.53608 23.0679 1.36381 23.0825 1.19262 23.0787C1.07506 23.076 0.957506 23.0744 0.852951 23.0078C0.828031 22.9877 0.809613 22.9639 0.796069 22.9352C0.702891 22.5397 0.739187 22.1415 0.770066 21.7444C0.780359 21.7184 0.790652 21.6919 0.79932 21.6653C0.806904 21.6496 0.81503 21.6334 0.828573 21.6225C1.27496 21.2569 1.27279 21.1724 0.811238 20.811C0.797153 20.7856 0.786318 20.759 0.778734 20.7303C0.722394 20.3435 0.726727 19.9567 0.7744 19.5705C0.783609 19.5445 0.794444 19.5179 0.80582 19.4924C0.810696 19.4854 0.814488 19.4762 0.821531 19.4713C1.29988 19.1403 1.29934 18.9675 0.81828 18.6484C0.801487 18.6241 0.79011 18.5975 0.781984 18.5688C0.71806 18.1815 0.73052 17.7941 0.772233 17.4073C0.781984 17.3813 0.792277 17.3553 0.801487 17.3288C0.80582 17.3217 0.808529 17.3114 0.815572 17.3071C1.30205 16.975 1.24354 16.787 0.810154 16.4761C0.796069 16.4495 0.785776 16.423 0.77765 16.3943C0.732145 15.9972 0.709934 15.6006 0.79011 15.2057C0.800403 15.177 0.816113 15.1505 0.836158 15.1277C0.951005 15.0367 1.08806 15.0454 1.22241 15.0421C1.40227 15.0372 1.58321 15.0557 1.76144 15.0237C1.92179 14.995 2.02255 14.8958 2.02201 14.7279C2.02147 14.56 1.91962 14.4619 1.75981 14.4327C1.59079 14.4018 1.41852 14.4191 1.24787 14.4153C1.11352 14.4121 0.976466 14.4218 0.854576 14.3449C0.829115 14.3254 0.810154 14.301 0.796611 14.2723C0.702349 13.8752 0.73702 13.476 0.771691 13.0767C0.781984 13.0507 0.792819 13.0236 0.803654 12.9976C0.812321 12.983 0.821531 12.9667 0.835616 12.957C1.29717 12.6449 1.29338 12.464 0.817739 12.1498C0.800945 12.1254 0.789568 12.0989 0.781442 12.0702C0.717518 11.6828 0.729978 11.2955 0.771691 10.9087C0.781442 10.8827 0.791735 10.8567 0.800945 10.8301C0.805279 10.8231 0.807987 10.8128 0.81503 10.8085C1.34268 10.4471 1.19912 10.2554 0.811238 9.97962C0.797153 9.95416 0.786318 9.92762 0.778734 9.89945C0.72131 9.51319 0.728353 9.12693 0.772233 8.74122C0.781984 8.71522 0.791735 8.68867 0.801487 8.66267C0.80582 8.65563 0.809071 8.64642 0.815572 8.641C1.27713 8.26016 1.27659 8.19244 0.806362 7.80565C0.793902 7.77802 0.783068 7.75093 0.773858 7.72222C0.73052 7.18536 0.707767 6.64959 0.78686 6.11436C0.796611 6.08456 0.81178 6.05802 0.831282 6.03418C0.997052 5.90579 1.19316 5.95346 1.37843 5.94425C1.49545 5.9383 1.613 5.94859 1.72947 5.93179C1.90066 5.90687 2.01876 5.81749 2.02039 5.63438C2.02201 5.45182 1.90716 5.35593 1.73543 5.33155C1.55666 5.30609 1.37572 5.3218 1.19533 5.31693C1.0691 5.31368 0.941795 5.31584 0.834532 5.22971C0.812321 5.20425 0.796069 5.17608 0.785235 5.14411C0.736479 5.03252 0.742438 4.91442 0.741896 4.79849C0.739187 3.34177 0.738104 1.88505 0.742979 0.428873C0.743521 0.279897 0.717518 0.116835 0.865411 0.00794677C2.44131 0.0052381 4.01667 -0.000179227 5.59257 0.000904239C5.8889 0.000904239 6.06171 0.176426 6.06171 0.475462C6.06388 2.12396 6.059 3.77136 6.05575 5.41932Z" fill="#A0C7E6"/>
<path d="M3.88942 25.127C3.89538 24.4049 3.9008 23.6827 3.90675 22.9612C4.15704 22.758 4.43115 22.8328 4.70419 22.8929C4.73236 22.9124 4.7524 22.9384 4.76432 22.9704C4.76486 23.5013 4.76161 24.0327 4.76648 24.5636C4.76974 24.9499 4.94309 25.1232 5.33043 25.1254C6.00543 25.1292 6.68097 25.1259 7.35597 25.1259C7.53528 25.3394 7.53962 25.7473 7.36464 25.984C6.29525 25.984 5.22533 25.9835 4.15595 25.9835C3.75886 25.847 3.64835 25.4905 3.88942 25.127Z" fill="#F0B71D"/>
<path d="M3.88951 25.127C3.89276 25.2337 3.90793 25.3415 3.89601 25.4466C3.86892 25.6844 3.95614 25.8594 4.1555 25.9834C2.91005 25.9867 1.66515 25.9921 0.419709 25.991C0.165095 25.9905 0.00257517 25.8215 0.000949972 25.5636C-0.00230042 24.9861 0.00365864 24.4086 0.00582557 23.8311C0.239312 23.6534 0.647779 23.6545 0.868806 23.8338C0.867722 24.095 0.862847 24.3555 0.866097 24.6166C0.870431 24.9742 1.01887 25.1242 1.37803 25.1259C2.21555 25.1291 3.05253 25.127 3.88951 25.127Z" fill="#74ADDC"/>
<path d="M0.866718 0.00872591C0.867801 1.73631 0.868343 3.46444 0.869427 5.19203C0.6484 5.3708 0.239391 5.37188 0.00644624 5.19473C0.0042793 3.61017 0.000487175 2.0256 0.00102891 0.441029C0.00102891 0.170162 0.166799 0.00872591 0.434957 0.00114165C0.579058 -0.00319221 0.723159 0.00601725 0.866718 0.00872591Z" fill="#74ADDC"/>
<path d="M21.237 25.1259C22.6103 25.1259 23.9836 25.127 25.3574 25.1259C25.463 25.1259 25.5746 25.1476 25.6689 25.0739C25.748 25.1454 25.8385 25.2082 25.904 25.29C26.0124 25.4255 26.0297 25.5799 25.9538 25.7429C25.878 25.906 25.7539 25.9927 25.5746 25.9927C24.126 25.9905 22.6774 25.9872 21.2289 25.984C21.0533 25.7473 21.0571 25.3393 21.237 25.1259Z" fill="#F0B71D"/>
<path d="M18.3991 17.7979C17.9917 18.2031 17.5848 18.6094 17.1758 19.0135C16.9245 19.2617 16.7002 19.2757 16.4992 19.0634C16.3085 18.8619 16.3296 18.649 16.5696 18.4057C16.9738 17.9967 17.3806 17.5899 17.7858 17.1819C17.9906 17.3878 18.1948 17.5926 18.3991 17.7979Z" fill="#539AD2"/>
<path d="M15.3255 14.7328C14.9149 15.1467 14.508 15.5643 14.0914 15.9723C13.8699 16.1889 13.6445 16.1846 13.4544 15.9836C13.2723 15.7908 13.2745 15.5811 13.4852 15.3666C13.8937 14.9505 14.3109 14.5432 14.7242 14.132C14.9441 14.3129 15.1446 14.5134 15.3255 14.7328Z" fill="#539AD2"/>
<path d="M12.2623 11.6584C11.8457 12.0821 11.4345 12.5111 11.0093 12.9261C10.8191 13.1119 10.5791 13.0978 10.4069 12.9266C10.2303 12.7511 10.2281 12.5003 10.4215 12.3026C10.83 11.8838 11.2471 11.4726 11.6604 11.0587C11.8609 11.2586 12.0619 11.4585 12.2623 11.6584Z" fill="#539AD3"/>
<path d="M0.86884 6.07102C0.86884 6.64417 0.86884 7.21786 0.86884 7.79102C0.647813 7.96979 0.238804 7.97087 0.00585938 7.79318C0.00585938 7.21841 0.00585938 6.64309 0.00585938 6.06831C0.238804 5.89116 0.648355 5.89224 0.86884 6.07102Z" fill="#74ADDC"/>
<path d="M10.7296 10.1356C10.4966 10.3723 10.2696 10.615 10.0297 10.8442C9.82108 11.0435 9.59843 11.0354 9.41207 10.8415C9.24197 10.6643 9.24143 10.4352 9.42724 10.2412C9.65694 10.0007 9.89693 9.76993 10.132 9.53482C10.3482 9.71901 10.5486 9.91783 10.7296 10.1356Z" fill="#539AD3"/>
<path d="M19.923 19.3277C19.6939 19.5569 19.4685 19.7904 19.2339 20.0141C19.0319 20.207 18.7865 20.208 18.6115 20.0298C18.4257 19.8402 18.4262 19.6219 18.6304 19.4101C18.8547 19.1771 19.0904 18.955 19.3217 18.728C19.54 18.9095 19.7399 19.1105 19.923 19.3277Z" fill="#539AD2"/>
<path d="M16.8529 16.2583C16.6194 16.4961 16.3919 16.7404 16.1508 16.9701C15.952 17.1592 15.7342 17.1511 15.5511 16.9707C15.3799 16.8016 15.3729 16.5551 15.55 16.3677C15.7792 16.1256 16.0186 15.8931 16.2537 15.657C16.4688 15.8422 16.6698 16.041 16.8529 16.2583Z" fill="#539AD3"/>
<path d="M13.802 13.2034C13.5718 13.4326 13.3453 13.665 13.1108 13.8887C12.9098 14.0805 12.6617 14.0821 12.4867 13.9055C12.2987 13.7165 12.3003 13.4987 12.5062 13.2863C12.7321 13.0539 12.9688 12.8313 13.2007 12.6048C13.4179 12.7874 13.6167 12.9889 13.802 13.2034Z" fill="#539AD3"/>
<path d="M0.86884 21.6669C0.86884 22.096 0.86884 22.525 0.86884 22.9541C0.647813 23.1329 0.239346 23.1339 0.00585938 22.9568C0.00585938 22.5261 0.00585938 22.0954 0.00585938 21.6653C0.238804 21.4876 0.647813 21.4887 0.86884 21.6669Z" fill="#74ADDC"/>
<path d="M0.86884 15.1689C0.86884 15.5979 0.86884 16.027 0.86884 16.456C0.647813 16.6348 0.238804 16.6359 0.00585938 16.4582C0.00585938 16.0275 0.00585938 15.5968 0.00585938 15.1667C0.239346 14.989 0.648355 14.9901 0.86884 15.1689Z" fill="#74ADDC"/>
<path d="M0.86884 17.3347C0.86884 17.7638 0.86884 18.1928 0.86884 18.6219C0.647813 18.8006 0.238804 18.8017 0.00585938 18.624C0.00585938 18.1933 0.00585938 17.7627 0.00585938 17.3325C0.238804 17.1554 0.647813 17.1565 0.86884 17.3347Z" fill="#74ADDC"/>
<path d="M0.86884 8.67022C0.86884 9.09927 0.86884 9.52832 0.86884 9.95738C0.647813 10.1361 0.238804 10.1372 0.00585938 9.95954C0.00585938 9.52887 0.00585938 9.09819 0.00585938 8.66805C0.238804 8.49036 0.647813 8.49145 0.86884 8.67022Z" fill="#74ADDC"/>
<path d="M0.86884 13.0025C0.86884 13.4315 0.86884 13.8606 0.86884 14.2896C0.647813 14.4684 0.238804 14.4695 0.00585938 14.2924C0.00585938 13.8617 0.00585938 13.431 0.00585938 13.0009C0.239346 12.8226 0.647813 12.8237 0.86884 13.0025Z" fill="#74ADDC"/>
<path d="M0.86884 10.8366C0.86884 11.2657 0.86884 11.6947 0.86884 12.1238C0.647813 12.3025 0.238804 12.3036 0.00585938 12.1259C0.00585938 11.6952 0.00585938 11.2646 0.00585938 10.8344C0.238804 10.6567 0.647813 10.6578 0.86884 10.8366Z" fill="#74ADDC"/>
<path d="M0.86884 19.5011C0.86884 19.9301 0.86884 20.3592 0.86884 20.7882C0.647813 20.967 0.238804 20.9681 0.00585938 20.791C0.00585938 20.3603 0.00585938 19.9296 0.00585938 19.4989C0.239346 19.3212 0.647813 19.3223 0.86884 19.5011Z" fill="#74ADDC"/>
<path d="M8.23991 25.1259C8.66733 25.1259 9.09476 25.1259 9.52273 25.1259C9.70258 25.3394 9.70638 25.7473 9.5314 25.9846C9.09801 25.9846 8.66517 25.9846 8.23178 25.9846C8.05626 25.7467 8.06005 25.3394 8.23991 25.1259Z" fill="#F0B71D"/>
<path d="M10.4057 25.1259C10.8331 25.1259 11.2606 25.1259 11.6885 25.1259C11.8679 25.3394 11.8722 25.7473 11.6972 25.984C11.2638 25.984 10.831 25.984 10.3976 25.984C10.2221 25.7467 10.2264 25.3394 10.4057 25.1259Z" fill="#F0B71D"/>
<path d="M12.5715 25.1259C12.999 25.1259 13.4269 25.1259 13.8544 25.1259C14.0342 25.3394 14.038 25.7473 13.863 25.984C13.4296 25.984 12.9968 25.984 12.5634 25.984C12.3884 25.7473 12.3922 25.3399 12.5715 25.1259Z" fill="#F0B71D"/>
<path d="M14.7378 25.1259C15.1652 25.1259 15.5926 25.1259 16.0206 25.1259C16.1999 25.3394 16.2042 25.7473 16.0292 25.984C15.5959 25.984 15.163 25.984 14.7296 25.984C14.5541 25.7467 14.5584 25.3394 14.7378 25.1259Z" fill="#F0B71D"/>
<path d="M16.903 25.1259C17.3304 25.1259 17.7578 25.1259 18.1858 25.1259C18.3657 25.3394 18.3695 25.7473 18.1945 25.984C17.7611 25.984 17.3283 25.984 16.8949 25.984C16.7193 25.7467 16.7231 25.3394 16.903 25.1259Z" fill="#F0B71D"/>
<path d="M19.0698 25.1259C19.4972 25.1259 19.9246 25.1259 20.3526 25.1259C20.5319 25.3394 20.5363 25.7473 20.3613 25.984C19.9279 25.984 19.495 25.984 19.0617 25.984C18.8861 25.7467 18.8905 25.3394 19.0698 25.1259Z" fill="#F0B71D"/>
<path d="M0.00585938 20.7904C0.293519 20.7893 0.58118 20.7888 0.86884 20.7877L0.861797 20.8002C1.03786 21.0532 1.03732 21.4015 0.861797 21.6539L0.86884 21.6664C0.58118 21.6659 0.293519 21.6653 0.00585938 21.6642C0.00585938 21.3733 0.00585938 21.0819 0.00585938 20.7904Z" fill="#2C5270"/>
<path d="M0.00585938 22.9568C0.29352 22.9557 0.58118 22.9552 0.86884 22.9541L0.861797 22.9671C1.03732 23.1957 1.03732 23.5923 0.861797 23.8209L0.86884 23.8339C0.58118 23.8333 0.29352 23.8323 0.00585938 23.8317C0.00585938 23.5397 0.00585938 23.2483 0.00585938 22.9568Z" fill="#2C5270"/>
<path d="M0.86884 6.07104C0.58118 6.07049 0.29352 6.06941 0.00585938 6.06887C0.00585938 5.77742 0.00585938 5.48596 0.00585938 5.19397C0.29352 5.19343 0.58118 5.19234 0.86884 5.1918L0.861797 5.2048C1.03732 5.43342 1.03732 5.82996 0.861797 6.05858L0.86884 6.07104Z" fill="#2C5270"/>
<path d="M0.86884 8.67023C0.58118 8.66968 0.293519 8.6686 0.00585938 8.66806C0.00585938 8.37661 0.00585938 8.08515 0.00585938 7.7937C0.293519 7.79316 0.58118 7.79208 0.86884 7.79153L0.861797 7.80399C1.03786 8.05698 1.03786 8.40478 0.861797 8.65777L0.86884 8.67023Z" fill="#2C5270"/>
<path d="M0.86884 10.8366C0.58118 10.8361 0.293519 10.835 0.00585938 10.8344C0.00585938 10.543 0.00585938 10.2515 0.00585938 9.96008C0.293519 9.95954 0.58118 9.95846 0.86884 9.95792L0.861797 9.97038C1.03786 10.2234 1.03786 10.5712 0.861797 10.8241L0.86884 10.8366Z" fill="#2C5270"/>
<path d="M0.00585938 12.1259C0.29352 12.1254 0.58118 12.1243 0.86884 12.1238L0.861797 12.1362C1.03732 12.3643 1.03732 12.7614 0.861797 12.99L0.86884 13.0025C0.58118 13.0019 0.29352 13.0008 0.00585938 13.0003C0.00585938 12.7089 0.00585938 12.4174 0.00585938 12.1259Z" fill="#2C5270"/>
<path d="M0.00585938 14.2918C0.29352 14.2907 0.58118 14.2902 0.86884 14.2891L0.861797 14.3021C1.03732 14.5307 1.03732 14.9273 0.861797 15.1559L0.86884 15.1689C0.58118 15.1683 0.29352 15.1672 0.00585938 15.1662C0.00585938 14.8752 0.00585938 14.5838 0.00585938 14.2918Z" fill="#2C5270"/>
<path d="M8.24001 25.1259C8.2373 25.4119 8.23459 25.698 8.23134 25.984C7.9426 25.984 7.65386 25.984 7.36511 25.984C7.3624 25.698 7.3597 25.4119 7.35645 25.1259L7.37432 25.1281C7.60077 24.9558 7.99623 24.9558 8.22268 25.1281L8.24001 25.1259Z" fill="#3888C8"/>
<path d="M10.4056 25.1259C10.4029 25.4119 10.4002 25.698 10.3969 25.984C10.1082 25.984 9.81944 25.984 9.53015 25.984C9.52744 25.698 9.52419 25.4119 9.52148 25.1254L9.53936 25.1275C9.76581 24.9553 10.1613 24.9558 10.3877 25.1275L10.4056 25.1259Z" fill="#3888C8"/>
<path d="M0.86884 17.3347C0.58118 17.3342 0.293519 17.3331 0.00585938 17.3325C0.00585938 17.0411 0.00585938 16.7496 0.00585938 16.4582C0.293519 16.4576 0.58118 16.4566 0.86884 16.456L0.861797 16.4685C1.03786 16.7215 1.03786 17.0693 0.861797 17.3223L0.86884 17.3347Z" fill="#2C5270"/>
<path d="M12.5715 25.1259C12.5688 25.412 12.5661 25.698 12.5634 25.9846C12.2746 25.9846 11.9859 25.9846 11.6971 25.9846C11.6944 25.6985 11.6917 25.4125 11.6885 25.1265L11.7058 25.1286C11.9323 24.9564 12.3277 24.9564 12.5536 25.1286L12.5715 25.1259Z" fill="#3888C8"/>
<path d="M14.7381 25.1259C14.7354 25.4119 14.7326 25.698 14.7294 25.984C14.4406 25.984 14.1519 25.984 13.8632 25.984C13.8605 25.698 13.8577 25.4119 13.8545 25.1259L13.8724 25.1281C14.0988 24.9558 14.4943 24.9558 14.7207 25.1281L14.7381 25.1259Z" fill="#3888C8"/>
<path d="M16.9041 25.1259C16.9014 25.4119 16.8987 25.698 16.8954 25.984C16.6067 25.984 16.3179 25.984 16.0292 25.984C16.0265 25.698 16.0238 25.4119 16.0205 25.1254L16.0378 25.1275C16.2643 24.9553 16.6598 24.9553 16.8862 25.1275L16.9041 25.1259Z" fill="#3888C8"/>
<path d="M0.86884 19.5011C0.58118 19.5006 0.29352 19.4995 0.00585938 19.4989C0.00585938 19.2075 0.00585938 18.916 0.00585938 18.6246C0.29352 18.624 0.58118 18.6229 0.86884 18.6224L0.861797 18.6349C1.03732 18.8635 1.03732 19.26 0.861797 19.4886L0.86884 19.5011Z" fill="#2C5270"/>
<path d="M19.0691 25.1259C19.0664 25.4119 19.0637 25.698 19.0604 25.984C18.7717 25.984 18.483 25.984 18.1942 25.984C18.1915 25.698 18.1888 25.4119 18.1855 25.1259L18.2034 25.1281C18.4299 24.9558 18.8253 24.9558 19.0518 25.1281L19.0691 25.1259Z" fill="#3888C8"/>
<path d="M20.3612 25.984C20.3585 25.698 20.3558 25.4119 20.3525 25.1259L20.3704 25.1281C20.5969 24.9558 20.9923 24.9558 21.2188 25.1281L21.2366 25.1259C21.2339 25.4119 21.2312 25.698 21.228 25.984C20.9392 25.984 20.6505 25.984 20.3612 25.984Z" fill="#3888C8"/>
<path d="M3.90624 9.09659C3.90353 7.50931 3.90245 5.92257 3.89649 4.3353C3.89594 4.1251 3.99454 3.98046 4.17602 3.91925C4.43009 3.83365 4.62945 3.942 4.76813 4.16628C4.76705 5.80664 4.76543 7.44701 4.76434 9.08738C4.75568 9.10255 4.74755 9.11826 4.73942 9.13343C4.4561 9.25261 4.17602 9.29378 3.90624 9.09659Z" fill="#F0B71D"/>
<path d="M3.90723 17.7616C3.90723 17.3288 3.90723 16.8954 3.90723 16.4625C4.15751 16.2594 4.43162 16.3341 4.70466 16.3943C4.73283 16.4138 4.75287 16.4398 4.76479 16.4717C4.76479 16.8986 4.76479 17.3255 4.76479 17.7524C4.75612 17.7676 4.748 17.7833 4.73933 17.7984C4.456 17.9171 4.17647 17.9582 3.90723 17.7616Z" fill="#F0B71D"/>
<path d="M3.90723 22.0938C3.90723 21.661 3.90723 21.2276 3.90723 20.7947C4.15751 20.5916 4.43162 20.6664 4.70466 20.7265C4.73283 20.746 4.75287 20.772 4.76479 20.8039C4.76479 21.2308 4.76479 21.6577 4.76479 22.0841C4.75612 22.0992 4.748 22.1149 4.73987 22.1301C4.45654 22.2498 4.17647 22.2905 3.90723 22.0938Z" fill="#F0B71D"/>
<path d="M3.90723 13.4294C3.90723 12.9965 3.90723 12.5631 3.90723 12.1303C4.15751 11.9271 4.43162 12.0019 4.70466 12.062C4.73283 12.0815 4.75287 12.1075 4.76479 12.1395C4.76479 12.5664 4.76479 12.9933 4.76479 13.4201C4.75612 13.4353 4.748 13.451 4.73933 13.4662C4.456 13.5848 4.17647 13.626 3.90723 13.4294Z" fill="#F0B71D"/>
<path d="M3.90723 19.9274C3.90723 19.4946 3.90723 19.0617 3.90723 18.6284C4.15751 18.4252 4.43162 18.5 4.70466 18.5601C4.73283 18.5796 4.75287 18.6056 4.76479 18.6376C4.76479 19.0645 4.76479 19.4913 4.76479 19.9182C4.75612 19.9334 4.748 19.9491 4.73933 19.9643C4.45654 20.0835 4.17647 20.1246 3.90723 19.9274Z" fill="#F0B71D"/>
<path d="M3.90723 15.5952C3.90723 15.1623 3.90723 14.729 3.90723 14.2961C4.15751 14.093 4.43162 14.1677 4.70466 14.2279C4.73283 14.2474 4.75287 14.2734 4.76479 14.3053C4.76479 14.7322 4.76479 15.1591 4.76479 15.586C4.75612 15.6011 4.748 15.6169 4.73933 15.632C4.45654 15.7512 4.17647 15.7924 3.90723 15.5952Z" fill="#F0B71D"/>
<path d="M3.90723 11.263C3.90723 10.8301 3.90723 10.3967 3.90723 9.9639C4.15751 9.76075 4.43162 9.83551 4.70466 9.89564C4.73283 9.91514 4.75287 9.94115 4.76479 9.97311C4.76479 10.4 4.76479 10.8269 4.76479 11.2538C4.75612 11.2689 4.748 11.2846 4.73933 11.2998C4.456 11.419 4.17647 11.4602 3.90723 11.263Z" fill="#F0B71D"/>
<path d="M4.76446 11.2538C5.04183 11.257 5.3192 11.2575 5.59656 11.264C5.89993 11.2711 6.06624 11.4271 6.06624 11.6958C6.06624 11.9645 5.89993 12.1211 5.59656 12.1287C5.3192 12.1357 5.04183 12.1357 4.76446 12.1389L4.76609 12.1205C4.5949 11.8935 4.5949 11.4986 4.76609 11.2716L4.76446 11.2538Z" fill="#539AD3"/>
<path d="M14.7203 25.128C14.4376 25.128 14.1548 25.128 13.872 25.128C13.8687 24.8507 13.8595 24.5728 13.865 24.2959C13.8704 24.0121 14.06 23.8198 14.3097 23.8279C14.5497 23.8355 14.722 24.0202 14.7274 24.2959C14.7328 24.5728 14.7231 24.8507 14.7203 25.128Z" fill="#539AD3"/>
<path d="M19.0524 25.128C18.7696 25.128 18.4868 25.128 18.204 25.128C18.2008 24.8507 18.1916 24.5733 18.197 24.2959C18.2024 24.0126 18.3925 23.8198 18.6417 23.8279C18.8817 23.8355 19.054 24.0207 19.0594 24.2959C19.0648 24.5728 19.0551 24.8507 19.0524 25.128Z" fill="#539AD3"/>
<path d="M10.3877 25.1281C10.1049 25.1281 9.82213 25.1281 9.53934 25.1281C9.53663 24.8415 9.52526 24.5549 9.53284 24.2689C9.53988 24.0143 9.71811 23.836 9.94943 23.8279C10.1889 23.8192 10.385 24.0029 10.3931 24.2689C10.4029 24.5549 10.3909 24.8415 10.3877 25.1281Z" fill="#539AD3"/>
<path d="M4.76446 19.9182C5.03424 19.9215 5.30348 19.922 5.57273 19.9285C5.87068 19.9356 6.05433 20.1024 6.05433 20.3603C6.05433 20.6176 5.87014 20.7861 5.57273 20.7931C5.30348 20.7996 5.0337 20.8002 4.76446 20.8034L4.76609 20.785C4.5949 20.558 4.5949 20.1631 4.76609 19.9361C4.76554 19.9367 4.76446 19.9182 4.76446 19.9182Z" fill="#539AD3"/>
<path d="M4.76446 15.586C5.03424 15.5892 5.30348 15.5898 5.57273 15.5963C5.87068 15.6033 6.05433 15.7702 6.05433 16.0281C6.05433 16.2854 5.87014 16.4539 5.57273 16.4609C5.30348 16.4674 5.0337 16.4679 4.76446 16.4712L4.76609 16.4528C4.5949 16.2258 4.5949 15.8309 4.76609 15.6039L4.76446 15.586Z" fill="#539AD3"/>
<path d="M21.2175 25.1281C20.9347 25.1281 20.6519 25.1281 20.3691 25.1281C20.3735 24.7998 20.5219 24.6237 20.7928 24.6237C21.0631 24.6237 21.211 24.7987 21.2175 25.1281Z" fill="#539AD2"/>
<path d="M8.2214 25.1281C7.93862 25.1281 7.65583 25.1281 7.37305 25.1281C7.37738 24.7998 7.52581 24.6237 7.79722 24.6237C8.06755 24.6237 8.2149 24.7987 8.2214 25.1281Z" fill="#539AD2"/>
<path d="M12.5539 25.1281C12.2711 25.1281 11.9888 25.1281 11.7061 25.1281C11.7098 24.8009 11.8577 24.6243 12.1281 24.6237C12.3962 24.6232 12.5419 24.796 12.5539 25.1281Z" fill="#549AD1"/>
<path d="M16.8864 25.1281C16.6037 25.1281 16.3209 25.1281 16.0381 25.1281C16.0424 24.8009 16.1914 24.6232 16.4623 24.6232C16.7331 24.6232 16.8821 24.8009 16.8864 25.1281Z" fill="#559AD1"/>
<path d="M4.76446 9.08734C5.01582 9.12255 5.18755 9.25203 5.19406 9.51639C5.2011 9.79539 5.02612 9.9319 4.76446 9.97307L4.76609 9.95466C4.5949 9.72767 4.5949 9.33275 4.76609 9.10576L4.76446 9.08734Z" fill="#569AD0"/>
<path d="M4.76446 13.4201C5.02341 13.4553 5.19839 13.5772 5.19893 13.8627C5.19893 14.1482 5.02233 14.2685 4.76446 14.3059L4.76609 14.2874C4.5949 14.0605 4.5949 13.6655 4.76609 13.4386L4.76446 13.4201Z" fill="#549AD2"/>
<path d="M4.76446 17.7524C5.02341 17.7876 5.19839 17.9095 5.19893 18.195C5.19947 18.4805 5.02233 18.6007 4.76446 18.6381L4.76609 18.6197C4.5949 18.3927 4.5949 17.9978 4.76609 17.7708L4.76446 17.7524Z" fill="#549AD2"/>
<path d="M4.76446 22.0841C5.01745 22.1242 5.1843 22.2628 5.1843 22.5267C5.18485 22.7916 5.01528 22.927 4.76446 22.9704L4.76609 22.9519C4.5949 22.7249 4.5949 22.33 4.76609 22.103L4.76446 22.0841Z" fill="#579ACF"/>
<path d="M0.862305 6.05852C0.862305 5.77411 0.862305 5.48916 0.862305 5.20475C1.14996 5.20258 1.43762 5.19446 1.72529 5.20042C2.01024 5.20638 2.16896 5.36781 2.16842 5.63109C2.16842 5.89492 2.01024 6.05635 1.72529 6.06231C1.43762 6.06881 1.14996 6.06015 0.862305 6.05852Z" fill="#366388"/>
<path d="M0.862305 15.1564C0.862305 14.872 0.862305 14.587 0.862305 14.3026C1.14996 14.3004 1.43817 14.2918 1.72529 14.2988C1.98694 14.3053 2.1565 14.4749 2.16409 14.7149C2.17167 14.9652 1.99724 15.1515 1.72529 15.1596C1.43817 15.1678 1.14996 15.158 0.862305 15.1564Z" fill="#366388"/>
<path d="M0.862305 23.8209C0.862305 23.5365 0.862305 23.2515 0.862305 22.9671C1.14021 22.9649 1.41812 22.9563 1.69603 22.9633C1.9734 22.9704 2.14675 23.1432 2.14729 23.3934C2.14784 23.641 1.97232 23.8171 1.69603 23.8247C1.41812 23.8317 1.14021 23.8225 0.862305 23.8209Z" fill="#366388"/>
<path d="M4.76587 22.1025C4.76587 22.3853 4.76587 22.6686 4.76587 22.9514C4.4793 22.9546 4.19326 22.9573 3.90723 22.9606C3.90723 22.6713 3.90723 22.3825 3.90723 22.0933C4.19326 22.0965 4.47984 22.0998 4.76587 22.1025Z" fill="#3888C8"/>
<path d="M4.76544 9.1058C4.76544 9.38858 4.76544 9.67191 4.76544 9.95469C4.4794 9.95794 4.19283 9.96065 3.90679 9.9639C3.90679 9.67462 3.90679 9.38587 3.90625 9.09659C4.19283 9.09984 4.4794 9.10309 4.76544 9.1058Z" fill="#3988C8"/>
<path d="M4.76641 13.4386C4.76641 13.7213 4.76641 14.0041 4.76641 14.2875C4.47984 14.2907 4.1938 14.2934 3.90723 14.2967C3.90723 14.0074 3.90723 13.7186 3.90723 13.4294C4.19326 13.4321 4.47984 13.4353 4.76641 13.4386Z" fill="#3888C8"/>
<path d="M4.76544 15.6044C4.76544 15.8872 4.76544 16.1705 4.76544 16.4533C4.47886 16.4566 4.19283 16.4593 3.90625 16.4625C3.90625 16.1732 3.90625 15.8845 3.90625 15.5952C4.19283 15.5985 4.4794 15.6017 4.76544 15.6044Z" fill="#3888C8"/>
<path d="M4.76641 11.2722C4.76641 11.555 4.76641 11.8383 4.76641 12.1211C4.47984 12.1243 4.1938 12.127 3.90723 12.1303C3.90723 11.841 3.90723 11.5523 3.90723 11.263C4.19326 11.2662 4.47984 11.2695 4.76641 11.2722Z" fill="#3888C8"/>
<path d="M4.76641 17.7708C4.76641 18.0536 4.76641 18.3364 4.76641 18.6197C4.47984 18.623 4.1938 18.6257 3.90723 18.6289C3.90723 18.3396 3.90723 18.0509 3.90723 17.7616C4.1938 17.7643 4.47984 17.7676 4.76641 17.7708Z" fill="#3888C8"/>
<path d="M4.76544 19.9366C4.76544 20.2194 4.76544 20.5027 4.76544 20.7855C4.47886 20.7888 4.19283 20.7915 3.90625 20.7947C3.90625 20.5055 3.90625 20.2167 3.90625 19.9274C4.19283 19.9307 4.4794 19.9339 4.76544 19.9366Z" fill="#3888C8"/>
<path d="M3.02273 2.16404C2.79195 2.15862 2.59476 1.95222 2.60072 1.72253C2.60668 1.49121 2.81199 1.29456 3.04169 1.30052C3.27247 1.30593 3.46966 1.51233 3.46424 1.74149C3.45828 1.97118 3.2508 2.17 3.02273 2.16404Z" fill="#376488"/>
<path d="M0.862305 12.99C0.862305 12.7056 0.862305 12.4206 0.862305 12.1362C1.1478 12.1774 1.29027 12.3123 1.29786 12.5485C1.30598 12.7934 1.15755 12.9434 0.862305 12.99Z" fill="#386489"/>
<path d="M0.862305 19.4886C0.862305 19.2042 0.862305 18.9193 0.862305 18.6349C1.1478 18.676 1.29082 18.8109 1.29786 19.0471C1.30598 19.2914 1.15755 19.442 0.862305 19.4886Z" fill="#386488"/>
<path d="M0.862305 17.3222C0.862305 17.0378 0.862305 16.7529 0.862305 16.4685C1.12884 16.4858 1.27673 16.6364 1.27565 16.8948C1.27511 17.1521 1.12938 17.3044 0.862305 17.3222Z" fill="#386489"/>
<path d="M0.862305 8.65779C0.862305 8.37338 0.862305 8.08843 0.862305 7.80402C1.12938 7.82135 1.27511 7.97304 1.27511 8.2309C1.27511 8.48822 1.12884 8.63937 0.862305 8.65779Z" fill="#386489"/>
<path d="M0.862305 10.8236C0.862305 10.5392 0.862305 10.2543 0.862305 9.96985C1.12884 9.98773 1.27565 10.1383 1.27565 10.3967C1.27565 10.6551 1.12884 10.8063 0.862305 10.8236Z" fill="#386489"/>
<path d="M0.862305 21.6545C0.862305 21.3701 0.862305 21.0851 0.862305 20.8007C1.12992 20.817 1.27511 20.9697 1.27565 21.2271C1.27619 21.4855 1.12721 21.635 0.862305 21.6545Z" fill="#386489"/>
</svg>
