<svg width="36" height="35" viewBox="0 0 36 35" fill="none" xmlns="http://www.w3.org/2000/svg">
<path d="M15.7309 29H28.6802L27.7102 7.79288H15.7309H13.9493H1.97001L1 29H13.9493H15.7309Z" stroke="black" stroke-width="1.5" stroke-miterlimit="10" stroke-linecap="round" stroke-linejoin="round"/>
<path d="M9.17535 11.4352V13.9426C9.17535 17.0714 11.7113 19.6073 14.8401 19.6073C17.9689 19.6073 20.5048 17.0714 20.5048 13.9426V11.4352" stroke="black" stroke-width="1.5" stroke-miterlimit="10" stroke-linecap="round" stroke-linejoin="round"/>
<path d="M5.77399 7.79287L11.9649 1.39269C12.4753 0.866473 13.3185 0.869643 13.8257 1.39903L19.9406 7.79287" stroke="black" stroke-width="1.5" stroke-miterlimit="10" stroke-linecap="round" stroke-linejoin="round"/>
<path d="M17.0559 1.39269C17.5663 0.866473 18.4095 0.869643 18.9167 1.39903L25.0316 7.79287" stroke="black" stroke-width="1.5" stroke-miterlimit="10" stroke-linecap="round" stroke-linejoin="round"/>
<path d="M27.6801 35C32.0983 35 35.6801 31.4183 35.6801 27C35.6801 22.5817 32.0983 19 27.6801 19C23.2618 19 19.6801 22.5817 19.6801 27C19.6801 31.4183 23.2618 35 27.6801 35Z" fill="#D22227"/>
<path d="M27.7481 31.144C27.0521 31.144 26.4321 30.972 25.8881 30.628C25.3441 30.284 24.9161 29.788 24.6041 29.14C24.3001 28.484 24.1481 27.704 24.1481 26.8C24.1481 25.896 24.3001 25.12 24.6041 24.472C24.9161 23.816 25.3441 23.316 25.8881 22.972C26.4321 22.628 27.0521 22.456 27.7481 22.456C28.4441 22.456 29.0641 22.628 29.6081 22.972C30.1521 23.316 30.5761 23.816 30.8801 24.472C31.1921 25.12 31.3481 25.896 31.3481 26.8C31.3481 27.704 31.1921 28.484 30.8801 29.14C30.5761 29.788 30.1521 30.284 29.6081 30.628C29.0641 30.972 28.4441 31.144 27.7481 31.144ZM27.7481 29.5C28.2601 29.5 28.6601 29.28 28.9481 28.84C29.2441 28.4 29.3921 27.72 29.3921 26.8C29.3921 25.88 29.2441 25.2 28.9481 24.76C28.6601 24.32 28.2601 24.1 27.7481 24.1C27.2441 24.1 26.8441 24.32 26.5481 24.76C26.2601 25.2 26.1161 25.88 26.1161 26.8C26.1161 27.72 26.2601 28.4 26.5481 28.84C26.8441 29.28 27.2441 29.5 27.7481 29.5Z" fill="white"/>
</svg>
