<svg width="65" height="39" viewBox="0 0 65 39" fill="none" xmlns="http://www.w3.org/2000/svg">
<path d="M2 10.0819H10.6624V2H46.244V32.8356" stroke="#D22227" stroke-width="2.5" stroke-miterlimit="10" stroke-linecap="round" stroke-linejoin="round"/>
<path d="M26.0992 32.8356H46.244H50.5444" stroke="#D22227" stroke-width="2.5" stroke-miterlimit="10" stroke-linecap="round" stroke-linejoin="round"/>
<path d="M46.244 9.67154H55.2523C59.5292 9.67154 63 13.1394 63 17.4193V32.8357H59.2244" stroke="#D22227" stroke-width="2.5" stroke-miterlimit="10" stroke-linecap="round" stroke-linejoin="round"/>
<path d="M2 25.0527H10.6624V32.8357H17.4193" stroke="#D22227" stroke-width="2.5" stroke-miterlimit="10" stroke-linecap="round" stroke-linejoin="round"/>
<path d="M21.7578 37.1771C24.1555 37.1771 26.0993 35.2334 26.0993 32.8357C26.0993 30.4379 24.1555 28.4942 21.7578 28.4942C19.3601 28.4942 17.4164 30.4379 17.4164 32.8357C17.4164 35.2334 19.3601 37.1771 21.7578 37.1771Z" stroke="#D22227" stroke-width="2.5" stroke-miterlimit="10" stroke-linecap="round" stroke-linejoin="round"/>
<path d="M54.8829 37.1771C57.2807 37.1771 59.2244 35.2334 59.2244 32.8357C59.2244 30.4379 57.2807 28.4942 54.8829 28.4942C52.4852 28.4942 50.5415 30.4379 50.5415 32.8357C50.5415 35.2334 52.4852 37.1771 54.8829 37.1771Z" stroke="#D22227" stroke-width="2.5" stroke-miterlimit="10" stroke-linecap="round" stroke-linejoin="round"/>
<path d="M2 17.4193H29.8456" stroke="#D22227" stroke-width="2.5" stroke-miterlimit="10" stroke-linecap="round" stroke-linejoin="round"/>
<path d="M26.8497 13.6759L31.4902 17.4193L26.8497 21.2536" stroke="#D22227" stroke-width="2.5" stroke-miterlimit="10" stroke-linecap="round" stroke-linejoin="round"/>
</svg>
