<svg width="22" height="22" viewBox="0 0 22 22" fill="none" xmlns="http://www.w3.org/2000/svg">
<path d="M21 8.98337C21 15.4067 15.7933 20.6135 9.36991 20.6135C9.27135 20.6135 9.17279 20.6119 9.07577 20.6104C8.17487 20.5873 7.30015 20.4625 6.46239 20.2469C6.46239 20.2469 6.46239 20.2469 6.46085 20.2469C3.21452 18.5375 1 15.1311 1 11.2087C1 5.57072 5.57072 1 11.2071 1C15.8102 1 19.7018 4.04766 20.9754 8.23493C20.9923 8.48287 21 8.73235 21 8.98337Z" stroke="#ED1C24" stroke-miterlimit="10" stroke-linecap="round" stroke-linejoin="round"/>
<path d="M21 8.98337C21 15.4067 15.7933 20.6135 9.36991 20.6135C9.27135 20.6135 9.17279 20.6119 9.07577 20.6104C8.17487 20.5873 7.30015 20.4625 6.46239 20.2469C6.46239 20.2469 6.46239 20.2469 6.46085 20.2469C3.21452 18.5375 1 15.1311 1 11.2087C1 5.57072 5.57072 1 11.2071 1C15.8102 1 19.7018 4.04766 20.9754 8.23493C20.9923 8.48287 21 8.73235 21 8.98337Z" stroke="black" stroke-miterlimit="10" stroke-linecap="round" stroke-linejoin="round"/>
<path d="M9.07568 20.6104C9.07568 20.6104 11.2378 20.2377 12.1819 16.8559C13.1259 13.474 17.0175 11.5382 19.3768 11.2087C19.3768 11.2087 20.8906 10.5095 20.9984 8.98337" stroke="black" stroke-miterlimit="10" stroke-linecap="round" stroke-linejoin="round"/>
<path d="M5.34131 13.2784C5.34131 13.2784 7.60049 17.6674 12.0203 16.6264" stroke="black" stroke-miterlimit="10" stroke-linecap="round" stroke-linejoin="round"/>
<path d="M7.70057 9.30677C8.41755 9.30677 8.99879 8.72553 8.99879 8.00854C8.99879 7.29156 8.41755 6.71032 7.70057 6.71032C6.98358 6.71032 6.40234 7.29156 6.40234 8.00854C6.40234 8.72553 6.98358 9.30677 7.70057 9.30677Z" fill="black"/>
<path d="M14.3055 9.30677C15.0225 9.30677 15.6038 8.72553 15.6038 8.00854C15.6038 7.29156 15.0225 6.71032 14.3055 6.71032C13.5886 6.71032 13.0073 7.29156 13.0073 8.00854C13.0073 8.72553 13.5886 9.30677 14.3055 9.30677Z" fill="black"/>
</svg>
