<svg width="22" height="22" viewBox="0 0 22 22" fill="none" xmlns="http://www.w3.org/2000/svg">
<path d="M21 5.95865V16.4491H1V12.2842C1.65587 12.2842 2.18769 11.7524 2.18769 11.0965C2.18769 10.4406 1.65587 9.9088 1 9.9088V5.95865H21Z" stroke="black" stroke-miterlimit="10" stroke-linecap="round" stroke-linejoin="round"/>
<path d="M8.27197 16.4491L11.1838 21.2883L19.0473 16.4491" stroke="black" stroke-miterlimit="10" stroke-linecap="round" stroke-linejoin="round"/>
<path d="M2.22681 5.95865L5.3821 4.05996C5.69912 4.58718 6.38486 4.75833 6.91208 4.4413C7.4393 4.12313 7.61045 3.43855 7.29228 2.91133L10.4705 1L13.4535 5.95865" stroke="black" stroke-miterlimit="10" stroke-linecap="round" stroke-linejoin="round"/>
<path d="M4.90649 6.59499V15.4808" stroke="black" stroke-miterlimit="10" stroke-linecap="round" stroke-linejoin="round"/>
<path d="M10.3933 10.7866C11.1628 10.7866 11.7866 10.1628 11.7866 9.39329C11.7866 8.6238 11.1628 8 10.3933 8C9.6238 8 9 8.6238 9 9.39329C9 10.1628 9.6238 10.7866 10.3933 10.7866Z" stroke="black" stroke-miterlimit="10" stroke-linecap="round" stroke-linejoin="round"/>
<path d="M15.3933 14.7866C16.1628 14.7866 16.7866 14.1628 16.7866 13.3933C16.7866 12.6238 16.1628 12 15.3933 12C14.6238 12 14 12.6238 14 13.3933C14 14.1628 14.6238 14.7866 15.3933 14.7866Z" stroke="black" stroke-miterlimit="10" stroke-linecap="round" stroke-linejoin="round"/>
<path d="M9.40454 15.088L16.0884 7.60005" stroke="black" stroke-miterlimit="10" stroke-linecap="round" stroke-linejoin="round"/>
</svg>
